<svg id="Grupo_2457" data-name="Grupo 2457" xmlns="http://www.w3.org/2000/svg" xmlns:xlink="http://www.w3.org/1999/xlink" width="172.93" height="38.743" viewBox="0 0 172.93 38.743">
  <defs>
    <clipPath id="clip-path">
      <rect id="Rectángulo_1545" data-name="Rectángulo 1545" width="172.93" height="38.743" fill="#3f315d"/>
    </clipPath>
  </defs>
  <g id="Grupo_2456" data-name="Grupo 2456" transform="translate(0 0)" clip-path="url(#clip-path)">
    <path id="Trazado_2193" data-name="Trazado 2193" d="M99.4,45.539H99.37c-.1,0-.207.025-.335.025-.568,0-1.007-.308-1.007-1.547,0-1.007,0-2.194,0-3.51,0-3.535.024-7.715.049-9.883v-.1a1.877,1.877,0,0,0-2.065-2.141c-.232,0-.594.026-.851.026a.766.766,0,0,0-.8.775.663.663,0,0,0,.722.67h.052a3.2,3.2,0,0,1,.412-.026c1.033,0,1.033.438,1.034,2.193,0,1.5-.025,3.329-.025,4.645,0,.335-.026.465-.077.465s-.129-.13-.259-.309a5.185,5.185,0,0,0-4.078-1.857,5.778,5.778,0,0,0-5.856,6.117c0,3.742,2.5,6.167,5.86,6.166a5.372,5.372,0,0,0,4.309-2.168c.051-.051.078-.077.1-.077.077,0,.1.1.129.257a2.116,2.116,0,0,0,2.35,1.832c.335,0,1.031-.077,1.031-.8a.686.686,0,0,0-.671-.749m-7.2.286c-2.581,0-4.387-1.806-4.387-4.748,0-2.968,1.779-4.774,4.385-4.774,2.451,0,4.361,1.882,4.362,4.773A4.412,4.412,0,0,1,92.2,45.824" transform="translate(-39.02 -12.834)" fill="#3f315d"/>
    <path id="Trazado_2194" data-name="Trazado 2194" d="M125.97,50.958c-1.032-.362-1.213-.98-1.213-2.864,0-.981.05-2.323.128-3.174a7.036,7.036,0,0,0,.026-.723c0-2.89-1.627-3.948-4.028-3.948-2.218,0-4.385,1.11-4.385,2.091a.7.7,0,0,0,.722.7.718.718,0,0,0,.542-.258,4.066,4.066,0,0,1,3.019-1.239c2.09,0,2.684,1.108,2.684,2.528,0,.129-.025.284-.025.413,0,.18-.1.259-.413.31a41.36,41.36,0,0,0-4.773,1.059,3.447,3.447,0,0,0-2.761,3.2c0,1.781,1.575,3.561,4.181,3.561a4.77,4.77,0,0,0,3.922-1.988.138.138,0,0,1,.1-.078c.051,0,.077.051.1.129a2.2,2.2,0,0,0,1.911,1.65.7.7,0,0,0,.7-.722.657.657,0,0,0-.439-.645m-2.556-4.232c0,3.974-2.451,4.516-3.767,4.517-1.728,0-2.761-1.083-2.761-2.167,0-1.807,2.141-2.323,6.193-2.969h.077c.18,0,.258.077.258.284Z" transform="translate(-52.229 -18.202)" fill="#3f315d"/>
    <path id="Trazado_2195" data-name="Trazado 2195" d="M145.125,48.159h-.1c-.257.026-.49.052-.722.052-2.013,0-2.065-1.367-2.066-3.38,0-1.91.077-4.567.077-5.548,0-.309,0-.361.413-.361h2.271a.671.671,0,0,0,.723-.7.664.664,0,0,0-.723-.67h-2.3c-.335,0-.387,0-.388-.284,0,0,.051-2.065.051-2.813a.749.749,0,1,0-1.5-.05v.645c0,.9-.026,2.142-.026,2.245,0,.232-.05.257-.283.257h-1.5a.685.685,0,1,0,0,1.368h1.522c.181,0,.257.026.257.283v.413c0,1.264-.05,4.412-.049,6.064,0,1.136,0,3.949,3.3,3.948,1.031,0,1.652-.13,1.652-.8a.64.64,0,0,0-.621-.67" transform="translate(-62.559 -15.22)" fill="#3f315d"/>
    <path id="Trazado_2196" data-name="Trazado 2196" d="M166.858,50.958c-1.032-.362-1.213-.98-1.213-2.864,0-.981.05-2.323.128-3.174a7.034,7.034,0,0,0,.026-.723c0-2.89-1.627-3.948-4.028-3.948-2.218,0-4.385,1.11-4.385,2.091a.7.7,0,0,0,.722.7.718.718,0,0,0,.542-.258,4.066,4.066,0,0,1,3.019-1.239c2.09,0,2.684,1.109,2.684,2.528,0,.129-.025.285-.025.413,0,.181-.1.259-.413.31a41.358,41.358,0,0,0-4.773,1.059,3.447,3.447,0,0,0-2.761,3.2c0,1.781,1.575,3.561,4.181,3.561a4.77,4.77,0,0,0,3.922-1.988.138.138,0,0,1,.1-.078c.05,0,.077.051.1.129a2.2,2.2,0,0,0,1.911,1.65.7.7,0,0,0,.7-.722.656.656,0,0,0-.439-.645M164.3,46.727c0,3.974-2.451,4.516-3.767,4.517-1.728,0-2.761-1.083-2.761-2.167,0-1.807,2.141-2.323,6.193-2.969h.077c.18,0,.258.077.258.284Z" transform="translate(-70.72 -18.202)" fill="#3f315d"/>
    <path id="Trazado_2197" data-name="Trazado 2197" d="M186.551,46.062c-.8-.412-2.039-.928-2.761-1.264a1.988,1.988,0,0,1-1.265-1.7c0-.851.748-1.652,2.09-1.652.155,0,2.451,0,2.451,2.063a.663.663,0,0,0,.723.671.635.635,0,0,0,.645-.619v-.052c-.026-.593-.026-.981-.026-1.342,0-.387,0-.748.026-1.291V40.85a.6.6,0,0,0-.646-.62.58.58,0,0,0-.592.412c-.026.078,0,.309-.129.309a.19.19,0,0,1-.155-.051,4.155,4.155,0,0,0-2.272-.7c-2.3,0-3.509,1.471-3.509,2.968a3.12,3.12,0,0,0,2.091,2.864c2.994,1.239,4.13,1.856,4.13,3.224,0,1.239-1.265,1.988-2.58,1.988-1.471,0-2.762-.851-2.762-1.7,0-.181.052-.309.052-.49a.663.663,0,0,0-.7-.7.678.678,0,0,0-.722.672v.052c.026.619.051,1.006.051,1.393s-.025.774-.05,1.342v.051a.622.622,0,0,0,.67.619c.309,0,.619-.078.619-.723,0-.078.026-.129.078-.129a.326.326,0,0,1,.181.1,4.048,4.048,0,0,0,2.581.851c2.941,0,4.076-1.911,4.076-3.33a3.7,3.7,0,0,0-2.3-3.2" transform="translate(-81.692 -18.182)" fill="#3f315d"/>
    <path id="Trazado_2198" data-name="Trazado 2198" d="M211.348,46.08c-.154,0-.284.026-.387.026a.955.955,0,0,1-.748-.309c-4.672-4.282-5.342-4.9-5.342-5.082,0-.078.052-.156.207-.258,1.264-.827,3.25-2.169,4.773-3.2a1.232,1.232,0,0,1,.645-.233c.362,0,.155.026.517.026h.026a.678.678,0,0,0,.722-.67.628.628,0,0,0-.748-.672c-.671.026-1.291.027-1.858.027-.594,0-1.162,0-1.807-.026h-.051a.657.657,0,0,0-.7.672c0,.618.618.618,1.083.618.129,0,.181.026.181.078,0,.026-.026.078-.1.129-4.077,2.813-4.18,2.839-4.463,2.839a.387.387,0,0,1-.439-.412s.05-5.471.049-8.8c0-.567-.181-1.935-2.3-1.934-.9,0-1.367.077-1.367.748a.7.7,0,0,0,.722.722h.593c.645.026.851.309.851,1.032,0,1.394.027,3.123.028,4.929,0,3.148-.025,6.631-.075,9.341a.407.407,0,0,1-.439.439c-.413,0-.465-.026-.774-.026h-.026a.71.71,0,0,0-.748.723.667.667,0,0,0,.775.67c.593-.026,1.212-.051,1.857-.051.671,0,1.342.025,2.013.051h.026a.7.7,0,1,0,0-1.394h-.026a6.528,6.528,0,0,1-.722.026.394.394,0,0,1-.439-.438c-.025-1.239-.025-2.065-.026-2.684,0-1.342.026-1.574.413-1.574a.923.923,0,0,1,.774.309c.8.825,2.917,2.786,4.285,4.127a.2.2,0,0,1,.051.1c0,.026,0,.181-.671.181a.6.6,0,0,0-.7.672.656.656,0,0,0,.7.67h.051c.594-.026,1.161-.051,1.729-.051s1.187.025,1.858.05h.026a.689.689,0,0,0,.723-.723.638.638,0,0,0-.723-.67" transform="translate(-90.103 -13.068)" fill="#3f315d"/>
    <path id="Trazado_2199" data-name="Trazado 2199" d="M236.354,49.33a.731.731,0,0,0-.516.232,4.625,4.625,0,0,1-3.742,1.7,4.216,4.216,0,0,1-4.336-4.541c0-.362.052-.464.309-.465.569,0,2.761.026,4.7.025.954,0,1.832,0,2.426-.026,1.316-.053,1.883-.775,1.883-1.73a4.808,4.808,0,0,0-5.086-4.23,5.9,5.9,0,0,0-5.753,6.246,5.766,5.766,0,0,0,5.834,6.089c3.252,0,5.057-1.963,5.057-2.556a.789.789,0,0,0-.774-.748m-4.337-7.741c2.633,0,3.536,1.935,3.536,2.683,0,.413-.233.7-.852.724-.722.026-2.168.026-3.51.027-2.993,0-3.226,0-3.226-.258,0-.955,1.574-3.175,4.051-3.175" transform="translate(-102.311 -18.224)" fill="#3f315d"/>
    <path id="Trazado_2200" data-name="Trazado 2200" d="M256.436,48.16h-.1c-.257.026-.49.052-.723.052-2.012,0-2.064-1.368-2.065-3.381,0-1.91.077-4.568.077-5.548,0-.309,0-.361.413-.361h2.271a.685.685,0,1,0,0-1.368h-2.3c-.335,0-.387,0-.388-.284,0,0,.052-2.064.052-2.813a.749.749,0,1,0-1.5-.051v.645c0,.9-.026,2.142-.026,2.245,0,.232-.05.258-.283.258h-1.5a.685.685,0,1,0,0,1.368h1.522c.181,0,.257.026.257.284v.413c0,1.264-.051,4.413-.05,6.064,0,1.136,0,3.948,3.3,3.947,1.033,0,1.652-.129,1.652-.8a.639.639,0,0,0-.619-.671" transform="translate(-112.897 -15.221)" fill="#3f315d"/>
    <path id="Trazado_2201" data-name="Trazado 2201" d="M277.607,49.292a.812.812,0,0,0-.671.387,4.06,4.06,0,0,1-3.3,1.5,4.522,4.522,0,0,1-4.491-4.8,4.561,4.561,0,0,1,4.49-4.878,3.389,3.389,0,0,1,2.632,1.057c.31.361.232.672.258,1.214a.683.683,0,0,0,.723.619.665.665,0,0,0,.747-.646v-.052c-.025-.593-.025-1.006-.025-1.392,0-.413,0-.8.025-1.342v-.052a.666.666,0,0,0-.749-.645c-.284,0-.592.129-.618.439-.026.129-.052.284-.129.284-.052,0-.078-.026-.13-.052a5.953,5.953,0,0,0-2.916-.773c-3.252,0-5.805,2.711-5.8,6.323a5.865,5.865,0,0,0,6.067,6.088c2.787,0,4.721-1.73,4.721-2.478a.826.826,0,0,0-.826-.8" transform="translate(-121.037 -18.16)" fill="#3f315d"/>
    <path id="Trazado_2202" data-name="Trazado 2202" d="M303.421,46.058h-.026c-.362,0-.336.026-.723.026-.31,0-.439-.181-.439-.465,0-2.038-.027-5.006-.053-6.09a4.088,4.088,0,0,0-4.311-4.129,4.832,4.832,0,0,0-3.818,1.756c-.052.051-.078.078-.1.078s-.051-.052-.051-.13c0-.361.024-2.683.024-4.773q0-.774,0-1.471a1.8,1.8,0,0,0-1.754-1.961,5.574,5.574,0,0,0-.646-.051c-1.109,0-1.315.335-1.315.774a.7.7,0,0,0,.722.723h.026a5.013,5.013,0,0,1,.567-.026c.672.026.878.387.878,1.057,0,1.548.027,3.639.028,5.832,0,3.1-.025,6.348-.05,8.439a.387.387,0,0,1-.412.439c-.413,0-.491-.026-.826-.026h-.026a.709.709,0,0,0-.747.724.667.667,0,0,0,.774.67c.594-.026,1.238-.051,1.884-.053s1.341.026,2.013.051h.026a.7.7,0,1,0-.027-1.394,6.529,6.529,0,0,1-.722.026.394.394,0,0,1-.439-.439c0-1.213-.026-2.348-.026-3.3,0-.928.026-1.7.026-2.193a3.769,3.769,0,0,1,3.843-3.381,2.9,2.9,0,0,1,2.969,3.043c.026.491.052,1.7.052,3.046,0,.955-.025,1.935-.025,2.787a.4.4,0,0,1-.413.439c-.413,0-.439-.025-.774-.025H299.5a.709.709,0,0,0-.747.723.667.667,0,0,0,.774.672c.594-.027,1.213-.053,1.858-.053.671,0,1.342.026,2.014.051h.026a.7.7,0,1,0,0-1.394" transform="translate(-131.239 -13.046)" fill="#3f315d"/>
    <path id="Trazado_2203" data-name="Trazado 2203" d="M28.754,35.876V22.839a2.584,2.584,0,0,0-2.581-2.581H2.581A2.584,2.584,0,0,0,0,22.839V40a2.583,2.583,0,0,0,2.581,2.581H13.723l-4.2,4.23a.64.64,0,1,0,.908.9l3.95-3.975,3.949,3.975a.64.64,0,1,0,.908-.9l-4.2-4.229H26.174A2.583,2.583,0,0,0,28.754,40V37.423L36.2,42.472a.64.64,0,1,0,.719-1.059Zm-1.28-.869L23.1,32.038a.64.64,0,1,0-.719,1.059l5.1,3.458V40a1.3,1.3,0,0,1-1.3,1.3H2.581A1.3,1.3,0,0,1,1.28,40V22.839a1.3,1.3,0,0,1,1.3-1.3H26.174a1.3,1.3,0,0,1,1.3,1.3Z" transform="translate(0 -9.161)" fill="#3f315d"/>
    <path id="Trazado_2204" data-name="Trazado 2204" d="M187.069,6.488a3.22,3.22,0,0,0,.3-1.448,2.676,2.676,0,0,0-1.113-2.376,5.657,5.657,0,0,0-3.2-.76q-.621,0-1.36.05a8.536,8.536,0,0,0-1.348.186v9.445h1.741V8.2h.87a8.675,8.675,0,0,0,1.866-.18,4,4,0,0,0,1.382-.559,2.5,2.5,0,0,0,.862-.978m-2.2-.121a4.281,4.281,0,0,1-1.931.351h-.845V3.46c.285-.027.65-.041,1.086-.041a5.419,5.419,0,0,1,.932.076,2.383,2.383,0,0,1,.753.255,1.307,1.307,0,0,1,.5.5,1.583,1.583,0,0,1,.18.788,1.364,1.364,0,0,1-.671,1.328Z" transform="translate(-81.558 -0.856)" fill="#3f315d"/>
    <path id="Trazado_2205" data-name="Trazado 2205" d="M200.693,7.093a3.129,3.129,0,0,0-1.1-.767,3.6,3.6,0,0,0-1.4-.269,3.524,3.524,0,0,0-1.4.269,3.2,3.2,0,0,0-1.1.767,3.507,3.507,0,0,0-.724,1.2,4.5,4.5,0,0,0-.255,1.553,4.564,4.564,0,0,0,.255,1.562,3.57,3.57,0,0,0,.712,1.207,3.182,3.182,0,0,0,1.086.772,3.49,3.49,0,0,0,1.409.277,3.549,3.549,0,0,0,1.416-.277,3.159,3.159,0,0,0,1.1-.772,3.466,3.466,0,0,0,.7-1.207,4.67,4.67,0,0,0,.249-1.562,4.463,4.463,0,0,0-.256-1.553,3.546,3.546,0,0,0-.7-1.2m-1.207,4.476a1.63,1.63,0,0,1-2.584,0,2.876,2.876,0,0,1-.462-1.727,2.816,2.816,0,0,1,.462-1.705,1.642,1.642,0,0,1,2.584,0,2.812,2.812,0,0,1,.463,1.705,2.869,2.869,0,0,1-.466,1.727Z" transform="translate(-88.057 -2.739)" fill="#3f315d"/>
    <path id="Trazado_2206" data-name="Trazado 2206" d="M209.9,10.417q.3.926.6,1.741t.582,1.448h1.373q.362-1.022.724-2.172t.683-2.369q.317,1.217.7,2.369t.739,2.172h1.356q.29-.634.595-1.448t.6-1.741q.3-.924.6-1.948t.595-2.086h-1.727q-.121.58-.291,1.251T216.687,9q-.186.7-.381,1.361c-.129.442-.255.845-.375,1.216q-.208-.635-.405-1.314t-.372-1.354q-.174-.677-.325-1.319t-.276-1.207h-1.269q-.121.567-.284,1.207t-.339,1.319q-.18.677-.38,1.354t-.409,1.314c-.129-.37-.258-.773-.388-1.216s-.254-.9-.375-1.361-.236-.922-.347-1.368-.209-.864-.291-1.251H208.7q.289,1.063.595,2.086t.612,1.948" transform="translate(-94.379 -2.886)" fill="#3f315d"/>
    <path id="Trazado_2207" data-name="Trazado 2207" d="M232.927,13.64a6.285,6.285,0,0,0,.732-.041c.242-.027.462-.061.671-.1q.279-.055.552-.137a2.617,2.617,0,0,0,.38-.146l-.221-1.367a4.524,4.524,0,0,1-.8.235,5.154,5.154,0,0,1-1.111.111,2.337,2.337,0,0,1-1.582-.477,1.906,1.906,0,0,1-.615-1.348H235.7c.008-.092.016-.194.022-.31s.006-.219.006-.312a4,4,0,0,0-.836-2.762,2.971,2.971,0,0,0-2.328-.927,3.336,3.336,0,0,0-1.243.241,3.121,3.121,0,0,0-1.077.724,3.519,3.519,0,0,0-.753,1.2,4.529,4.529,0,0,0-.282,1.671,4.823,4.823,0,0,0,.221,1.5,3.223,3.223,0,0,0,.677,1.189,3.093,3.093,0,0,0,1.161.788,4.447,4.447,0,0,0,1.656.276M231.1,8.515a1.739,1.739,0,0,1,.31-.538A1.535,1.535,0,0,1,231.9,7.6a1.491,1.491,0,0,1,.677-.146,1.441,1.441,0,0,1,.642.131,1.334,1.334,0,0,1,.456.362,1.576,1.576,0,0,1,.284.54,2.233,2.233,0,0,1,.1.655h-3.109a2.965,2.965,0,0,1,.151-.626Z" transform="translate(-103.656 -2.736)" fill="#3f315d"/>
    <path id="Trazado_2208" data-name="Trazado 2208" d="M247.991,6.173c-.147-.023-.3-.041-.442-.057a3.712,3.712,0,0,0-.388-.02,7.491,7.491,0,0,0-1.609.159,9.152,9.152,0,0,0-1.207.338v6.879h1.672V7.679a3.889,3.889,0,0,1,.434-.1,3.467,3.467,0,0,1,.588-.055,4.2,4.2,0,0,1,.845.076,5.472,5.472,0,0,1,.575.145l.29-1.409c-.083-.028-.193-.057-.332-.089s-.279-.048-.426-.076" transform="translate(-110.5 -2.756)" fill="#3f315d"/>
    <path id="Trazado_2209" data-name="Trazado 2209" d="M254.673,12.568a3.1,3.1,0,0,0,1.161.788,4.438,4.438,0,0,0,1.658.282,6.423,6.423,0,0,0,.733-.041c.241-.028.462-.062.671-.1a5.674,5.674,0,0,0,.552-.137,2.67,2.67,0,0,0,.38-.146l-.221-1.367a4.6,4.6,0,0,1-.794.236,5.2,5.2,0,0,1-1.113.111,2.339,2.339,0,0,1-1.582-.477,1.908,1.908,0,0,1-.615-1.348h4.767c.009-.091.016-.194.021-.31s.007-.219.007-.312a4,4,0,0,0-.836-2.762,2.971,2.971,0,0,0-2.328-.927,3.32,3.32,0,0,0-1.243.242,3.1,3.1,0,0,0-1.078.724,3.511,3.511,0,0,0-.753,1.195,4.553,4.553,0,0,0-.282,1.671,4.852,4.852,0,0,0,.221,1.5,3.228,3.228,0,0,0,.674,1.183m.995-4.056a1.739,1.739,0,0,1,.31-.538,1.536,1.536,0,0,1,.491-.379,1.491,1.491,0,0,1,.677-.146,1.445,1.445,0,0,1,.643.131,1.325,1.325,0,0,1,.455.362,1.574,1.574,0,0,1,.284.54,2.232,2.232,0,0,1,.1.655h-3.109a2.877,2.877,0,0,1,.152-.624Z" transform="translate(-114.765 -2.735)" fill="#3f315d"/>
    <path id="Trazado_2210" data-name="Trazado 2210" d="M271.854,10.908a9.675,9.675,0,0,0,1.581-.121,9.751,9.751,0,0,0,1.25-.277V.011l-1.671.276V3.754a4.171,4.171,0,0,0-.69-.276,3.132,3.132,0,0,0-.926-.121,3.279,3.279,0,0,0-1.368.271,2.794,2.794,0,0,0-1.008.766,3.413,3.413,0,0,0-.629,1.195,5.3,5.3,0,0,0-.214,1.555,4.535,4.535,0,0,0,.255,1.569,3.314,3.314,0,0,0,.732,1.189,3.183,3.183,0,0,0,1.154.753,4.207,4.207,0,0,0,1.534.254m-1.541-5.5a1.5,1.5,0,0,1,1.334-.622,2.3,2.3,0,0,1,.779.13,2.657,2.657,0,0,1,.588.284V9.347a4.531,4.531,0,0,1-.463.076,5.93,5.93,0,0,1-.683.034,1.788,1.788,0,0,1-1.448-.628,2.621,2.621,0,0,1-.525-1.734,2.971,2.971,0,0,1,.419-1.687Z" transform="translate(-121.278 -0.005)" fill="#3f315d"/>
    <path id="Trazado_2211" data-name="Trazado 2211" d="M292.65,10.9a4.205,4.205,0,0,0,1.535-.262,3.145,3.145,0,0,0,1.152-.76,3.372,3.372,0,0,0,.732-1.195,4.538,4.538,0,0,0,.255-1.569,5.245,5.245,0,0,0-.214-1.541,3.545,3.545,0,0,0-.614-1.195,2.668,2.668,0,0,0-1-.766,3.593,3.593,0,0,0-2.293-.15,3.892,3.892,0,0,0-.711.276V0l-1.673.277V10.5a9.85,9.85,0,0,0,1.251.276,9.674,9.674,0,0,0,1.581.125m-1.16-5.72a2.351,2.351,0,0,1,.587-.275,2.376,2.376,0,0,1,.781-.121,1.5,1.5,0,0,1,1.328.622,2.967,2.967,0,0,1,.422,1.69,2.62,2.62,0,0,1-.52,1.721,1.785,1.785,0,0,1-1.448.628,5.83,5.83,0,0,1-.685-.034c-.155-.018-.31-.043-.462-.076Z" transform="translate(-131.064 0)" fill="#3f315d"/>
    <path id="Trazado_2212" data-name="Trazado 2212" d="M303.9,14.783a2.726,2.726,0,0,1-.986-.193l-.3,1.34a2.508,2.508,0,0,0,.575.18,3.85,3.85,0,0,0,1.791-.047,2.314,2.314,0,0,0,.8-.422,3.189,3.189,0,0,0,.651-.732,7.477,7.477,0,0,0,.566-1.064,52.686,52.686,0,0,0,2.594-7.461h-1.728q-.317,1.3-.7,2.688t-.824,2.619q-.263-.595-.528-1.287t-.5-1.388q-.234-.7-.437-1.375t-.339-1.258h-1.782a36.54,36.54,0,0,0,1.3,3.814q.725,1.8,1.52,3.317a2.541,2.541,0,0,1-.646.965,1.532,1.532,0,0,1-1.018.307" transform="translate(-136.848 -2.885)" fill="#3f315d"/>
  </g>
</svg>
