<svg id="Grupo_2455" data-name="Grupo 2455" xmlns="http://www.w3.org/2000/svg" xmlns:xlink="http://www.w3.org/1999/xlink" width="128.432" height="47.097" viewBox="0 0 128.432 47.097">
  <defs>
    <clipPath id="clip-path">
      <rect id="Rect치ngulo_1542" data-name="Rect치ngulo 1542" width="128.432" height="47.097" fill="none"/>
    </clipPath>
    <clipPath id="clip-path-2">
      <path id="Trazado_1082" data-name="Trazado 1082" d="M555.532,159.045l-.673,1.5a10.826,10.826,0,0,1-6.7,5.966,13.508,13.508,0,0,1-3.869.59h-.041v6.564h0a21.841,21.841,0,0,0,6.176-.847h0l.092-.027a18.638,18.638,0,0,0,6.808-3.678c.356-.3.705-.615,1.042-.954a26.5,26.5,0,0,0,1.739-2.329h1.249v-6.786Z" transform="translate(-544.245 -159.045)" fill="none"/>
    </clipPath>
    <linearGradient id="linear-gradient" x1="-3.54" y1="1.209" x2="-3.533" y2="1.209" gradientUnits="objectBoundingBox">
      <stop offset="0" stop-color="#db1018"/>
      <stop offset="0.079" stop-color="#db1018"/>
      <stop offset="0.875" stop-color="#f6bd00"/>
      <stop offset="1" stop-color="#f6bd00"/>
    </linearGradient>
  </defs>
  <g id="Grupo_2450" data-name="Grupo 2450">
    <g id="Grupo_2449" data-name="Grupo 2449" clip-path="url(#clip-path)">
      <path id="Trazado_1079" data-name="Trazado 1079" d="M36.87,12.072C34.506,5.479,28.735.192,19.586.008,19.419,0,19.252,0,19.082,0c-.187,0-.375,0-.559.008C6.071.288,0,9.945,0,19.557q0,.409.014.818a20.094,20.094,0,0,0,3.664,11.2,15.842,15.842,0,0,0,1.108,1.362,17.8,17.8,0,0,0,11.958,5.644q1.129.1,2.337.106c6.388,0,11.063-2.3,14.178-5.784a16.839,16.839,0,0,0,1.113-1.385,18.845,18.845,0,0,0,2.5-4.812A22.411,22.411,0,0,0,38.109,19.5a21.232,21.232,0,0,0-1.239-7.431M19.082,6.359c.176,0,.35,0,.522.009l0,.038c.2.007.394.017.585.032,7.9.579,11.091,7.226,10.991,13.194a14.654,14.654,0,0,1-2.274,7.855c-.014.021-.03.04-.044.061l.017.013a10.644,10.644,0,0,1-1.387,1.651l-.014-.007q-.271.263-.563.507a10.676,10.676,0,0,1-4.367,2.174,14.606,14.606,0,0,1-3.469.394,11.911,11.911,0,0,1-7.906-2.585,10.493,10.493,0,0,1-1.989-2.231,14.723,14.723,0,0,1-2.3-7.8A15.391,15.391,0,0,1,7.6,14.627,11.269,11.269,0,0,1,17.872,6.443c.192-.014.387-.026.585-.034l0-.036c.2-.008.412-.013.623-.013" transform="translate(0)" fill="#3a2e59"/>
      <path id="Trazado_1080" data-name="Trazado 1080" d="M636.571.3h-6.958L618.831,24.325h5.823v6.786h18.125l3.5,7.833,7.337,0V38.3ZM626.21,24.6l6.882-15.775L639.974,24.6Z" transform="translate(-525.185 -0.257)" fill="#f6bd00"/>
      <path id="Trazado_1081" data-name="Trazado 1081" d="M434.371.3c-7.747,0-13.116,3.3-16.26,7.951a20.554,20.554,0,0,0-3.379,11.583,23.5,23.5,0,0,0,.2,2.918c1.119,8.531,7.06,16.174,19.4,16.191V32.377c-9.127-.019-12.663-6.414-12.716-12.545-.053-6.194,3.811-12.864,12.757-12.864a12.842,12.842,0,0,1,8.419,3.012l2.732-6.086A18.921,18.921,0,0,0,434.371.3" transform="translate(-351.972 -0.253)" fill="#db1018"/>
    </g>
  </g>
  <g id="Grupo_2452" data-name="Grupo 2452" transform="translate(82.359 24.068)">
    <g id="Grupo_2451" data-name="Grupo 2451" clip-path="url(#clip-path-2)">
      <rect id="Rect치ngulo_1543" data-name="Rect치ngulo 1543" width="22.505" height="22.177" transform="matrix(0.77, -0.638, 0.638, 0.77, -7.184, 5.951)" fill="url(#linear-gradient)"/>
    </g>
  </g>
  <g id="Grupo_2454" data-name="Grupo 2454">
    <g id="Grupo_2453" data-name="Grupo 2453" clip-path="url(#clip-path)">
      <path id="Trazado_1083" data-name="Trazado 1083" d="M61.637,34.683C60.87,34.038,59.89,33.3,59,32.653c-.653-.473-1.261-.9-1.706-1.209s-.731-.5-.731-.5a6.463,6.463,0,0,0,.995-2.6,9.8,9.8,0,0,0-.337-4.6,23.343,23.343,0,0,0-2.551-5.416,7.936,7.936,0,0,0-.885-1.209,5.439,5.439,0,0,0-1.506-1.2l-1.259-.671a1.27,1.27,0,0,1-.714-.688,3.137,3.137,0,0,1-.284-1.072l-.084-1.539L49.8,9.452l-.1-1.87a1.216,1.216,0,0,0-.17-.491.187.187,0,0,0-.307,0,1.171,1.171,0,0,0-.17.491l-.1,1.87-.137,2.511L48.725,13.5a3.139,3.139,0,0,1-.284,1.075,1.256,1.256,0,0,1-.711.685l-1.259.671a5.342,5.342,0,0,0-1.479,1.165,7.745,7.745,0,0,0-.915,1.239,23.5,23.5,0,0,0-2.551,5.416,9.85,9.85,0,0,0-.337,4.6,6.467,6.467,0,0,0,.995,2.6s-.277.187-.715.491-1.049.732-1.7,1.205c-.917.665-1.927,1.424-2.7,2.083-1.422,1.205-2.063,2.073.077,1.4.227-.07.5-.177.811-.307.909-.388,2.108-.992,3.169-1.55.778-.409,1.482-.792,1.943-1.045.347-.19.554-.307.554-.307a8.692,8.692,0,0,0,5.756,1.93,8.675,8.675,0,0,0,5.753-1.93s.214.12.567.314c.464.255,1.169.639,1.948,1.047,1.038.544,2.205,1.132,3.1,1.518a8.424,8.424,0,0,0,.858.33c2.163.681,1.486-.21.033-1.439M53.6,24l.057-.608c.01-.087.057-.374.067-.461a1.937,1.937,0,0,1,.654-1.3c.177-.18.748-.728,1.065-.344a2.485,2.485,0,0,1-.564,3.512c-.337.214-1.376.3-1.279-.8M43.3,21.291c.317-.384.888.163,1.068.344a1.952,1.952,0,0,1,.654,1.3c.01.087.057.374.064.461l.057.608c.1,1.1-.938,1.015-1.275.8a2.489,2.489,0,0,1-.567-3.512M54.9,31.7a1.561,1.561,0,0,1,.237.083.307.307,0,0,1,.1.464,10.027,10.027,0,0,1-5.789,2.194H49.3a10,10,0,0,1-5.786-2.194.306.306,0,0,1,.1-.464,1.674,1.674,0,0,1,.236-.083.31.31,0,0,0,.125-.526A7.627,7.627,0,0,1,41.7,27.615c0-.007,0-.01-.007-.017a2.887,2.887,0,0,1,.371-2.26c.074-.06.134-.014.18.09.357.754.895,2.634,1.663,2.961,1.7.725,3.336,2.02,5.392,2.053.027,0,.05,0,.073,0s.047,0,.07,0c2.057-.033,3.689-1.329,5.4-2.053.768-.327,1.3-2.207,1.659-2.961.05-.1.107-.15.18-.09a2.888,2.888,0,0,1,.371,2.261l0,.013a7.654,7.654,0,0,1-2.281,3.568.3.3,0,0,0,.13.518" transform="translate(-30.346 -5.95)" fill="#3a2e59"/>
      <path id="Trazado_1084" data-name="Trazado 1084" d="M264.47,38.689h-8.649L244.584,25.8h-7v12.89h-7.272V.073c6.115,0,12.229.055,18.344.055,9.089.055,13.882,6.115,13.882,12.78,0,5.288-2.424,10.632-9.75,12.119L264.47,38.194ZM237.588,6.9v12.34H248.66c4.627,0,6.61-3.085,6.61-6.17s-2.038-6.17-6.61-6.17Z" transform="translate(-195.463 -0.062)" fill="#3a2e59"/>
    </g>
  </g>
</svg>
